<?xml version="1.0" encoding="UTF-8" standalone="no"?>
<!-- Uploaded to: SVG Repo, www.svgrepo.com, Generator: SVG Repo Mixer Tools -->

<svg
   fill="#000000"
   height="800px"
   width="800px"
   version="1.1"
   id="Layer_1"
   viewBox="0 0 512.001 512.001"
   xml:space="preserve"
   sodipodi:docname="lotus-icon.svg"
   inkscape:version="1.2.2 (732a01da63, 2022-12-09)"
   xmlns:inkscape="http://www.inkscape.org/namespaces/inkscape"
   xmlns:sodipodi="http://sodipodi.sourceforge.net/DTD/sodipodi-0.dtd"
   xmlns="http://www.w3.org/2000/svg"
   xmlns:svg="http://www.w3.org/2000/svg"><defs
   id="defs291" /><sodipodi:namedview
   id="namedview289"
   pagecolor="#ffffff"
   bordercolor="#000000"
   borderopacity="0.25"
   inkscape:showpageshadow="2"
   inkscape:pageopacity="0.0"
   inkscape:pagecheckerboard="0"
   inkscape:deskcolor="#d1d1d1"
   showgrid="false"
   inkscape:zoom="0.54"
   inkscape:cx="281.48148"
   inkscape:cy="439.81481"
   inkscape:window-width="1920"
   inkscape:window-height="1051"
   inkscape:window-x="-9"
   inkscape:window-y="-9"
   inkscape:window-maximized="1"
   inkscape:current-layer="Layer_1" />

<g
   id="g242"
   inkscape:label="top-dots"
   transform="matrix(1.3063629,0,0,1.3063629,-79.326105,-0.08606383)">
		<path
   id="circle240"
   d="m 372.87498,105.741 a 16.695999,16.695999 0 0 1 -16.69599,16.696 16.695999,16.695999 0 0 1 -16.696,-16.696 16.695999,16.695999 0 0 1 16.696,-16.696002 16.695999,16.695999 0 0 1 16.69599,16.696002 z"
   style="fill:#6d469a;fill-opacity:1" />
	<path
   id="circle234"
   d="m 178.089,105.741 a 16.695999,16.695999 0 0 1 -16.69599,16.696 16.695999,16.695999 0 0 1 -16.696,-16.696 16.695999,16.695999 0 0 1 16.696,-16.696002 A 16.695999,16.695999 0 0 1 178.089,105.741 Z"
   style="fill:#6d469a;fill-opacity:1" /><path
   id="circle246"
   d="m 272.7,38.953999 a 16.695999,16.695999 0 0 1 -16.696,16.695999 16.695999,16.695999 0 0 1 -16.696,-16.695999 16.695999,16.695999 0 0 1 16.696,-16.696 16.695999,16.695999 0 0 1 16.696,16.696 z"
   style="fill:#6d469a;fill-opacity:1" /></g><g
   id="g553"
   inkscape:label="lotus-bottom"
   transform="matrix(0.98432649,0,0,0.98432649,4.0124194,4.0124261)"><path
     d="M 50.173,346.282 C 23.454,360.59 6.409,376.327 5.29,377.372 c -7.053,6.587 -7.053,17.802 0,24.392 2.381,2.228 59.207,54.588 131.056,54.588 28.955,0 55.379,-8.535 76.875,-18.834 C 146.461,429.771 86.645,402.72 50.173,346.282 Z"
     id="path264"
     style="fill:#008000" /><path
     d="m 506.71,377.372 c -1.119,-1.044 -18.164,-16.779 -44.881,-31.088 -36.475,56.45 -96.296,83.488 -163.049,91.234 21.494,10.298 47.918,18.833 76.873,18.833 71.849,0 128.675,-52.359 131.056,-54.588 7.055,-6.587 7.055,-17.803 10e-4,-24.391 z"
     id="path270"
     style="fill:#008000" /><path
     d="m 256.019,451.981 c -11.493,7.317 -25.462,14.964 -41.429,21.508 15.773,8.381 31.014,13.72 36.203,15.423 3.341,1.092 6.971,1.125 10.413,0 5.189,-1.703 20.431,-7.041 36.203,-15.423 -15.922,-6.528 -29.899,-14.219 -41.39,-21.508 z"
     id="path276"
     style="fill:#008000"
     inkscape:label="path276" /></g><g
   id="g260"
   inkscape:label="lotus-top"
   transform="matrix(0.98432649,0,0,0.98432649,4.0124194,4.0124261)">
		<path
   d="m 466.187,199.603 c -0.489,-8.495 -7.283,-15.267 -15.772,-15.729 -2.314,-0.098 -42.609,-1.937 -86.52,11.643 6.377,18.6 10.563,38.864 10.563,60.484 0,63.348 -34.941,115.647 -60.36,145.357 31.604,-5.956 69.817,-18.946 98.731,-47.193 58.174,-56.811 53.576,-150.595 53.358,-154.562 z"
   id="path258"
   style="fill:#da7e12;fill-opacity:1" /><path
   d="m 266.99,109.868 c -6.283,-5.511 -15.696,-5.511 -21.979,0 -3.022,2.641 -74.078,65.713 -74.078,146.133 0,80.42 71.056,143.491 74.078,146.133 3.141,2.756 7.066,4.131 10.989,4.131 3.923,0 7.848,-1.375 10.989,-4.131 3.022,-2.641 74.078,-65.713 74.078,-146.133 0,-80.42 -71.056,-143.491 -74.077,-146.133 z"
   id="path252"
   style="fill:#da7e12;fill-opacity:1" />
	<path
   d="m 137.542,256.001 c 0,-21.623 4.187,-41.887 10.565,-60.49 -43.908,-13.585 -84.202,-11.749 -86.523,-11.636 -8.489,0.462 -15.282,7.234 -15.772,15.729 -0.217,3.967 -4.815,97.751 53.359,154.562 28.917,28.243 67.126,41.233 98.725,47.19 -25.406,-29.697 -60.354,-82.001 -60.354,-145.355 z"
   id="path282"
   style="fill:#da7e12;fill-opacity:1" /></g>







</svg>
